<svg xmlns="http://www.w3.org/2000/svg" xmlns:xlink="http://www.w3.org/1999/xlink" width="500" zoomAndPan="magnify" viewBox="0 0 375 374.999991" height="500" preserveAspectRatio="xMidYMid meet" version="1.0"><path fill="#e8e5dd" d="M 75.304688 243.25 C 68.597656 240.972656 64.472656 234.957031 64.429688 227.261719 C 64.34375 217.378906 70.964844 210.332031 80.375 210.289062 C 89.613281 210.289062 96.273438 216.476562 96.746094 225.671875 L 96.960938 229.195312 L 69.328125 229.195312 L 69.585938 230.398438 C 70.445312 234.226562 73.714844 238.050781 76.980469 238.996094 C 79.171875 239.640625 82.738281 239.640625 84.972656 238.996094 C 86.046875 238.652344 87.550781 237.664062 88.796875 236.375 C 90.859375 234.3125 90.902344 234.3125 93.4375 234.441406 L 95.972656 234.570312 L 94.339844 237.148438 C 90.472656 243.25 82.609375 245.742188 75.304688 243.25 Z M 91.460938 223.523438 C 91.289062 222.964844 91.074219 222.148438 90.945312 221.675781 C 90.386719 219.699219 88.023438 217.121094 85.746094 216.003906 C 79.171875 212.78125 71.824219 216.175781 69.585938 223.523438 L 69.285156 224.46875 L 91.71875 224.46875 Z M 91.460938 223.523438 " fill-opacity="1" fill-rule="nonzero"/><path fill="#e8e5dd" d="M 144.277344 243.765625 C 139.636719 242.691406 135.039062 238.308594 133.363281 233.324219 C 132.117188 229.582031 132.289062 223.78125 133.75 220.085938 C 136.242188 213.683594 142.515625 209.859375 149.648438 210.375 C 153.21875 210.632812 155.96875 211.835938 158.246094 214.113281 L 160.007812 215.875 L 160.007812 210.71875 L 164.734375 210.71875 L 164.734375 243.808594 L 160.007812 243.808594 L 160.007812 241.144531 L 159.964844 238.4375 L 159.0625 239.640625 C 156.441406 243.207031 149.90625 245.011719 144.277344 243.765625 Z M 152.746094 238.996094 C 159.40625 237.019531 162.328125 227.261719 158.417969 220.085938 C 156.527344 216.5625 151.929688 214.285156 147.886719 214.800781 C 141.3125 215.617188 137.53125 220.214844 137.488281 227.304688 C 137.488281 230.226562 137.660156 231.128906 138.691406 233.195312 C 139.980469 235.859375 142.300781 238.09375 144.578125 238.910156 C 146.46875 239.597656 150.636719 239.640625 152.746094 238.996094 Z M 152.746094 238.996094 " fill-opacity="1" fill-rule="nonzero"/><path fill="#e8e5dd" d="M 204.183594 243.59375 C 199.714844 242.390625 195.675781 238.867188 193.613281 234.441406 C 192.582031 232.207031 192.453125 231.515625 192.453125 227.046875 C 192.496094 222.578125 192.582031 221.890625 193.65625 219.65625 C 196.40625 214.027344 200.917969 210.890625 206.980469 210.417969 C 211.148438 210.117188 214.414062 210.847656 217.464844 212.824219 C 221.847656 215.660156 224.253906 220 224.769531 226.015625 L 225.027344 229.195312 L 197.308594 229.195312 L 197.609375 230.613281 C 198.425781 234.183594 201.390625 237.75 204.613281 238.824219 C 209.214844 240.414062 215.058594 239.082031 217.164062 236.03125 C 217.722656 235.214844 218.238281 234.484375 218.324219 234.398438 C 218.496094 234.183594 223.308594 234.355469 223.523438 234.570312 C 223.867188 234.914062 221.503906 238.480469 219.871094 240.027344 C 216.003906 243.722656 209.773438 245.140625 204.183594 243.59375 Z M 219.527344 223.523438 C 217.722656 217.421875 212.394531 213.898438 206.636719 214.972656 C 203.710938 215.53125 202.765625 216.003906 200.703125 217.9375 C 199.457031 219.183594 197.394531 223.050781 197.394531 224.253906 C 197.394531 224.382812 202.421875 224.46875 208.613281 224.46875 L 219.785156 224.46875 Z M 219.527344 223.523438 " fill-opacity="1" fill-rule="nonzero"/><path fill="#e8e5dd" d="M 240.371094 243.636719 C 236.246094 242.433594 233.453125 240.242188 231.171875 236.375 C 228.765625 232.335938 228.164062 226.445312 229.625 221.375 C 230.355469 218.753906 233.496094 214.5 235.773438 212.996094 C 238.652344 211.0625 240.800781 210.503906 245.3125 210.503906 C 249.695312 210.503906 251.199219 211.0625 254.292969 213.769531 C 255.324219 214.671875 256.269531 215.445312 256.355469 215.445312 C 256.398438 215.445312 256.441406 211.835938 256.355469 207.410156 C 256.269531 202.9375 256.3125 198.941406 256.441406 198.46875 C 256.613281 197.738281 257 197.609375 258.9375 197.609375 L 261.214844 197.652344 L 261.34375 220.730469 L 261.429688 243.851562 L 258.980469 243.722656 L 256.484375 243.59375 L 256.054688 239.039062 L 254.59375 240.542969 C 253.820312 241.359375 252.1875 242.433594 250.984375 242.949219 C 248.277344 244.109375 243.121094 244.453125 240.371094 243.636719 Z M 250.597656 238.394531 C 258.722656 234.355469 258.722656 220.214844 250.597656 216.003906 C 245.097656 213.210938 238.136719 215.359375 235.300781 220.730469 C 234.269531 222.75 234.140625 223.394531 234.140625 227.261719 C 234.140625 232.078125 234.785156 233.925781 237.535156 236.675781 C 240.542969 239.640625 246.515625 240.457031 250.597656 238.394531 Z M 250.597656 238.394531 " fill-opacity="1" fill-rule="nonzero"/><path fill="#e8e5dd" d="M 342.351562 243.59375 C 334.65625 241.53125 330.144531 234.527344 330.746094 225.714844 C 331.390625 215.875 338.652344 209.6875 348.539062 210.417969 C 354.46875 210.847656 358.808594 213.855469 361.429688 219.226562 C 362.976562 222.40625 363.019531 222.707031 363.019531 227.046875 C 363.019531 230.699219 362.847656 232.035156 362.03125 234.011719 C 358.980469 241.789062 350.6875 245.828125 342.351562 243.59375 Z M 350.859375 239.039062 C 353.136719 238.351562 355.15625 236.546875 356.617188 233.882812 C 357.820312 231.730469 357.90625 231.257812 357.90625 227.046875 C 357.90625 222.921875 357.820312 222.363281 356.746094 220.601562 C 354.425781 216.648438 351.503906 214.886719 347.164062 214.886719 C 345.746094 214.886719 343.8125 215.101562 342.910156 215.445312 C 340.375 216.261719 337.664062 218.96875 336.632812 221.71875 C 335.558594 224.640625 335.472656 229.496094 336.503906 232.421875 C 337.363281 234.957031 340.460938 238.265625 342.652344 238.953125 C 344.671875 239.597656 348.839844 239.640625 350.859375 239.039062 Z M 350.859375 239.039062 " fill-opacity="1" fill-rule="nonzero"/><path fill="#e8e5dd" d="M 14.105469 243.292969 C 13.976562 242.992188 13.933594 233.152344 13.976562 221.460938 L 14.105469 200.1875 L 45.910156 200.1875 L 45.910156 204.785156 L 32.457031 204.785156 L 19.050781 204.742188 L 19.136719 212.050781 L 19.265625 219.398438 L 31.082031 219.441406 L 42.898438 219.527344 L 43.027344 221.804688 L 43.15625 224.039062 L 19.050781 224.039062 L 19.050781 238.652344 L 32.5 238.738281 L 45.910156 238.867188 L 45.910156 243.59375 L 30.09375 243.722656 C 17.675781 243.808594 14.234375 243.722656 14.105469 243.292969 Z M 14.105469 243.292969 " fill-opacity="1" fill-rule="nonzero"/><path fill="#e8e5dd" d="M 53 220.859375 L 53 197.910156 L 55.191406 197.738281 C 56.394531 197.695312 57.46875 197.695312 57.554688 197.78125 C 57.640625 197.867188 57.726562 208.269531 57.726562 220.902344 L 57.726562 243.808594 L 53 243.808594 Z M 53 220.859375 " fill-opacity="1" fill-rule="nonzero"/><path fill="#e8e5dd" d="M 111.230469 242.519531 C 110.84375 241.832031 110.027344 239.726562 109.339844 237.921875 C 108.050781 234.484375 103.667969 223.222656 100.660156 215.703125 C 99.757812 213.382812 98.984375 211.320312 98.984375 211.105469 C 98.984375 210.890625 100.101562 210.71875 101.519531 210.71875 L 104.054688 210.71875 L 104.914062 212.996094 C 106.203125 216.21875 112.476562 232.894531 113.421875 235.558594 C 113.851562 236.761719 114.324219 237.792969 114.496094 237.792969 C 114.667969 237.792969 114.96875 237.277344 115.226562 236.632812 C 117.03125 231.730469 121.714844 219.140625 123.132812 215.359375 L 124.898438 210.71875 L 127.390625 210.71875 C 128.9375 210.71875 129.925781 210.890625 129.925781 211.191406 C 129.925781 211.449219 128.765625 214.585938 127.390625 218.152344 C 123.390625 228.292969 118.148438 241.875 117.761719 243.078125 C 117.546875 243.679688 116.988281 243.808594 114.710938 243.808594 C 112.003906 243.808594 111.875 243.765625 111.230469 242.519531 Z M 111.230469 242.519531 " fill-opacity="1" fill-rule="nonzero"/><path fill="#e8e5dd" d="M 177.023438 243.464844 C 176.9375 243.292969 176.808594 236.847656 176.808594 229.195312 L 176.808594 215.230469 L 170.277344 214.972656 L 170.535156 210.933594 L 176.980469 210.503906 L 176.851562 204.828125 C 176.765625 201.691406 176.851562 199.113281 177.066406 199.070312 C 177.238281 199.070312 178.445312 198.984375 179.648438 198.941406 L 181.882812 198.855469 L 182.011719 204.699219 L 182.140625 210.503906 L 189.445312 210.933594 L 189.703125 214.972656 L 182.140625 215.230469 L 182.011719 229.539062 L 181.925781 243.808594 L 179.5625 243.808594 C 178.316406 243.808594 177.152344 243.636719 177.023438 243.464844 Z M 177.023438 243.464844 " fill-opacity="1" fill-rule="nonzero"/><path fill="#e8e5dd" d="M 270.882812 222.148438 C 270.882812 202.765625 270.96875 200.445312 271.570312 200.230469 C 271.957031 200.101562 277.113281 200.015625 283.042969 200.101562 C 295.25 200.273438 296.796875 200.574219 300.234375 203.238281 C 301.652344 204.355469 302.683594 205.691406 303.671875 207.667969 C 304.875 210.160156 305.046875 210.890625 305.046875 214.15625 C 305.046875 217.421875 304.875 218.152344 303.628906 220.6875 C 302.597656 222.792969 301.695312 223.953125 300.191406 225.027344 C 296.28125 227.863281 295.292969 228.035156 284.976562 228.25 L 275.609375 228.421875 L 275.609375 243.808594 L 270.882812 243.808594 Z M 292.671875 223.222656 C 297.183594 222.578125 300.105469 219.183594 300.105469 214.542969 C 300.105469 211.234375 299.375 209.042969 297.785156 207.582031 C 295.292969 205.21875 294.261719 205 284.546875 204.828125 L 275.609375 204.699219 L 275.609375 223.609375 L 283.042969 223.566406 C 287.085938 223.566406 291.425781 223.394531 292.671875 223.222656 Z M 292.671875 223.222656 " fill-opacity="1" fill-rule="nonzero"/><path fill="#e8e5dd" d="M 310.847656 227.261719 L 310.847656 210.675781 L 313.34375 210.804688 L 315.792969 210.933594 L 315.75 214.285156 C 315.707031 216.089844 315.792969 217.59375 315.964844 217.59375 C 316.09375 217.59375 316.652344 216.820312 317.210938 215.875 C 318.757812 213.125 323.65625 210.289062 326.792969 210.289062 C 328.039062 210.289062 328.039062 210.332031 328.039062 212.78125 L 328.039062 215.273438 L 326.320312 215.316406 C 324.171875 215.402344 320.519531 217.335938 319.230469 219.097656 C 316.265625 223.050781 315.492188 226.917969 315.621094 236.933594 L 315.75 243.59375 L 313.300781 243.722656 L 310.847656 243.851562 Z M 310.847656 227.261719 " fill-opacity="1" fill-rule="nonzero"/><path fill="#e8e5dd" d="M 167.011719 183.042969 C 164.046875 182.441406 163.445312 182.054688 162.070312 179.820312 C 161.167969 178.402344 161.082031 177.753906 161.082031 172.46875 C 161.125 167.355469 161.210938 166.453125 162.027344 164.90625 C 163.53125 162.070312 165.679688 161.296875 172.167969 161.296875 C 178.488281 161.296875 180.722656 162.113281 182.054688 164.820312 C 183.042969 166.882812 183.171875 176.722656 182.226562 179.003906 C 180.550781 182.957031 174.617188 184.546875 167.011719 183.042969 Z M 167.011719 183.042969 " fill-opacity="1" fill-rule="nonzero"/><path fill="#e8e5dd" d="M 231.515625 182.484375 C 230.011719 182.183594 228.335938 180.035156 227.691406 177.582031 C 226.917969 174.789062 226.875 169.074219 227.519531 165.9375 C 228.636719 160.695312 230.226562 159.792969 238.652344 159.792969 C 243.9375 159.792969 244.582031 159.878906 246 160.78125 C 247.675781 161.8125 248.234375 162.84375 248.921875 166.367188 C 249.824219 170.835938 249.265625 177.796875 247.761719 180.292969 C 246.515625 182.398438 244.96875 182.785156 238.351562 182.742188 C 235.085938 182.699219 231.988281 182.570312 231.515625 182.484375 Z M 231.515625 182.484375 " fill-opacity="1" fill-rule="nonzero"/><path fill="#e8e5dd" d="M 166.023438 152.230469 C 164.261719 151.714844 162.800781 150.421875 161.8125 148.617188 C 161.167969 147.5 161.082031 145.78125 161.082031 136.800781 C 161.082031 127.132812 161.167969 126.144531 161.941406 124.597656 C 163.53125 121.457031 164.390625 121.113281 171.523438 120.984375 C 179.089844 120.855469 180.25 121.242188 181.839844 124.378906 C 182.699219 126.101562 182.828125 127.21875 183.085938 133.835938 C 183.515625 146.167969 182.957031 149.132812 179.648438 151.585938 C 178.574219 152.359375 177.753906 152.488281 172.984375 152.574219 C 169.976562 152.617188 166.839844 152.445312 166.023438 152.230469 Z M 166.023438 152.230469 " fill-opacity="1" fill-rule="nonzero"/><path fill="#e8e5dd" d="M 231.34375 149.820312 C 229.753906 149.175781 229.238281 148.660156 228.335938 146.898438 C 227.261719 144.792969 227.261719 144.621094 227.132812 132.503906 C 227.046875 120.640625 227.089844 120.167969 227.992188 117.890625 C 229.410156 114.496094 230.871094 113.851562 237.449219 113.679688 C 246.300781 113.421875 248.105469 114.667969 248.921875 121.542969 C 249.523438 126.574219 249.523438 140.625 248.921875 143.933594 C 248.320312 147.113281 247.160156 149.046875 245.398438 149.691406 C 244.667969 149.992188 241.617188 150.292969 238.652344 150.378906 C 234.269531 150.507812 232.9375 150.421875 231.34375 149.820312 Z M 231.34375 149.820312 " fill-opacity="1" fill-rule="nonzero"/><path fill="#e8e5dd" d="M 232.636719 103.882812 C 231.34375 103.539062 229.839844 102.851562 229.324219 102.335938 C 227.433594 100.574219 227.261719 98.855469 227.261719 82.867188 C 227.261719 68.382812 227.304688 67.738281 228.207031 65.804688 C 229.667969 62.625 230.785156 62.238281 238.222656 62.238281 C 249.308594 62.238281 249.566406 62.753906 249.308594 84.800781 C 249.179688 98.167969 249.136719 98.855469 248.234375 100.53125 C 247.71875 101.476562 247.03125 102.507812 246.644531 102.808594 C 244.667969 104.484375 237.019531 105.042969 232.636719 103.882812 Z M 232.636719 103.882812 " fill-opacity="1" fill-rule="nonzero"/><path fill="#cd8d2b" d="M 133.363281 272.558594 C 131.171875 272.128906 129.753906 270.96875 130.183594 269.894531 C 130.398438 269.25 130.613281 269.25 132.203125 270.066406 C 135.382812 271.699219 138.519531 270.925781 138.519531 268.519531 C 138.519531 267.316406 137.574219 266.5 134.867188 265.339844 C 133.707031 264.824219 132.203125 263.878906 131.558594 263.277344 C 129.324219 261.128906 130.398438 257.730469 133.621094 256.699219 C 135.898438 255.925781 139.808594 257.042969 139.808594 258.460938 C 139.808594 259.324219 138.347656 259.625 137.917969 258.894531 C 137.789062 258.722656 137.101562 258.417969 136.371094 258.246094 C 134.523438 257.902344 132.503906 258.980469 132.503906 260.3125 C 132.503906 261.601562 133.363281 262.289062 136.84375 263.921875 C 139.722656 265.296875 140.667969 266.414062 140.667969 268.519531 C 140.667969 269.765625 138.820312 272.042969 137.53125 272.386719 C 135.769531 272.902344 135.296875 272.945312 133.363281 272.558594 Z M 133.363281 272.558594 " fill-opacity="1" fill-rule="nonzero"/><path fill="#cd8d2b" d="M 148.1875 272.6875 C 145.351562 272.34375 142.816406 268.433594 142.816406 264.351562 C 142.816406 257.214844 149.734375 253.820312 154.421875 258.632812 C 155.796875 260.054688 155.925781 260.398438 156.054688 263.449219 C 156.269531 267.316406 155.710938 269.421875 154.121094 270.96875 C 152.832031 272.214844 150.292969 272.945312 148.1875 272.6875 Z M 152.402344 269.679688 C 154.636719 267.617188 154.980469 262.761719 153.132812 260.140625 C 151.066406 257.214844 146.984375 257.730469 145.652344 261.042969 C 144.105469 264.867188 145.523438 269.808594 148.402344 270.710938 C 150.164062 271.3125 150.808594 271.140625 152.402344 269.679688 Z M 152.402344 269.679688 " fill-opacity="1" fill-rule="nonzero"/><path fill="#cd8d2b" d="M 175.261719 272.6875 C 173.585938 272.472656 171.695312 270.710938 171.179688 268.777344 C 170.964844 267.917969 170.75 264.996094 170.75 262.289062 C 170.75 257.300781 171.09375 256.097656 172.296875 256.570312 C 172.769531 256.742188 172.898438 258.03125 172.898438 262.460938 C 172.898438 267.230469 173.027344 268.304688 173.714844 269.421875 C 174.703125 271.011719 176.335938 271.570312 177.96875 270.796875 C 179.820312 269.894531 180.207031 268.5625 180.207031 263.019531 C 180.207031 257.773438 180.59375 256.097656 181.710938 256.527344 C 182.226562 256.742188 182.355469 257.816406 182.355469 262.332031 C 182.355469 267.960938 182.011719 269.507812 180.464844 271.484375 C 179.777344 272.34375 177.324219 272.902344 175.261719 272.6875 Z M 175.261719 272.6875 " fill-opacity="1" fill-rule="nonzero"/><path fill="#cd8d2b" d="M 210.375 272.6875 C 208.527344 272.515625 206.25 270.152344 205.5625 267.617188 C 204.871094 265.210938 205.21875 261.042969 206.207031 259.539062 C 207.539062 257.472656 209.386719 256.527344 211.878906 256.527344 C 214.414062 256.527344 215.875 257.34375 217.507812 259.710938 C 218.28125 260.871094 218.453125 261.730469 218.453125 264.308594 C 218.453125 267.617188 217.679688 269.894531 216.003906 271.398438 C 215.058594 272.257812 212.351562 272.859375 210.375 272.6875 Z M 214.757812 269.636719 C 216.132812 268.21875 216.820312 265.554688 216.433594 262.933594 C 215.875 259.238281 212.996094 257.257812 210.117188 258.636719 C 208.269531 259.539062 207.28125 261.515625 207.28125 264.394531 C 207.28125 267.316406 208.183594 269.378906 209.945312 270.453125 C 211.664062 271.527344 213.039062 271.269531 214.757812 269.636719 Z M 214.757812 269.636719 " fill-opacity="1" fill-rule="nonzero"/><path fill="#cd8d2b" d="M 240.371094 272.515625 C 238.007812 272.085938 236.546875 270.796875 237.320312 269.851562 C 237.835938 269.25 238.007812 269.25 239.125 270.066406 C 241.617188 271.828125 245.527344 270.925781 245.527344 268.5625 C 245.527344 267.1875 245.054688 266.714844 242.734375 265.726562 C 241.53125 265.210938 239.984375 264.351562 239.210938 263.75 C 235.773438 261.128906 237.792969 256.441406 242.347656 256.527344 C 244.796875 256.570312 246.816406 257.472656 246.816406 258.460938 C 246.816406 259.453125 246.300781 259.496094 243.980469 258.589844 C 242.433594 257.988281 242.003906 257.988281 240.929688 258.503906 C 239.597656 259.152344 239.125 260.65625 239.984375 261.6875 C 240.285156 262.074219 241.917969 263.019531 243.636719 263.835938 C 246.988281 265.425781 247.976562 266.757812 247.460938 269.078125 C 246.902344 271.742188 243.980469 273.160156 240.371094 272.515625 Z M 240.371094 272.515625 " fill-opacity="1" fill-rule="nonzero"/><path fill="#cd8d2b" d="M 160.007812 264.652344 C 160.007812 256.742188 160.007812 256.65625 160.910156 256.785156 C 161.769531 256.914062 161.8125 257.128906 161.769531 263.878906 L 161.683594 270.839844 L 165.25 270.96875 C 168.085938 271.054688 168.816406 271.226562 168.816406 271.742188 C 168.816406 272.257812 168 272.429688 164.433594 272.515625 L 160.007812 272.644531 Z M 160.007812 264.652344 " fill-opacity="1" fill-rule="nonzero"/><path fill="#cd8d2b" d="M 189.660156 265.554688 L 189.660156 258.460938 L 187.425781 258.332031 C 185.75 258.246094 185.148438 258.03125 185.148438 257.558594 C 185.148438 257.042969 186.136719 256.914062 190.863281 256.785156 C 196.320312 256.699219 196.535156 256.699219 196.535156 257.558594 C 196.535156 258.289062 196.277344 258.417969 194.429688 258.417969 C 193.097656 258.417969 192.238281 258.632812 192.109375 258.980469 C 191.980469 259.28125 191.851562 262.332031 191.851562 265.726562 C 191.808594 269.121094 191.679688 272.042969 191.550781 272.257812 C 191.421875 272.429688 190.949219 272.601562 190.476562 272.601562 C 189.703125 272.601562 189.660156 272.257812 189.660156 265.554688 Z M 189.660156 265.554688 " fill-opacity="1" fill-rule="nonzero"/><path fill="#cd8d2b" d="M 199.628906 264.78125 C 199.757812 257 199.757812 256.914062 200.746094 256.785156 L 201.691406 256.65625 L 201.691406 272.601562 L 199.542969 272.601562 Z M 199.628906 264.78125 " fill-opacity="1" fill-rule="nonzero"/><path fill="#cd8d2b" d="M 222.234375 265.511719 C 222.191406 261.601562 222.148438 258.074219 222.148438 257.6875 C 222.105469 257.171875 222.492188 256.871094 223.179688 256.785156 C 224.167969 256.65625 224.597656 257.257812 227.691406 262.71875 C 229.582031 266.027344 231.257812 268.734375 231.386719 268.734375 C 231.515625 268.734375 231.601562 266.070312 231.601562 262.847656 C 231.558594 257 231.558594 256.914062 232.550781 256.785156 L 233.496094 256.65625 L 233.496094 272.601562 L 232.421875 272.601562 C 231.128906 272.601562 230.65625 271.871094 225.84375 262.933594 L 224.253906 259.925781 L 224.125 266.285156 C 224.039062 272.257812 223.953125 272.601562 223.179688 272.601562 C 222.363281 272.601562 222.320312 272.257812 222.234375 265.511719 Z M 222.234375 265.511719 " fill-opacity="1" fill-rule="nonzero"/><path fill="#cd8d2b" d="M 24.378906 265.339844 C 24.292969 265.253906 24.207031 264.695312 24.207031 264.136719 L 24.207031 263.148438 L 73.800781 263.148438 C 103.152344 263.148438 123.519531 263.320312 123.648438 263.535156 C 123.820312 263.75 123.777344 264.222656 123.648438 264.609375 C 123.433594 265.210938 118.578125 265.296875 73.972656 265.382812 C 46.8125 265.46875 24.464844 265.425781 24.378906 265.339844 Z M 24.378906 265.339844 " fill-opacity="1" fill-rule="nonzero"/><path fill="#cd8d2b" d="M 253.863281 265.339844 C 253.777344 265.253906 253.691406 264.695312 253.691406 264.136719 L 253.691406 263.148438 L 303.242188 263.234375 L 352.75 263.363281 L 352.75 265.296875 L 303.414062 265.425781 C 276.253906 265.46875 253.949219 265.425781 253.863281 265.339844 Z M 253.863281 265.339844 " fill-opacity="1" fill-rule="nonzero"/><path fill="#cd8d2b" d="M 135.039062 182.828125 C 131.773438 182.527344 130.914062 182.183594 129.410156 180.421875 C 127.992188 178.789062 127.691406 175.433594 127.863281 163.058594 L 127.992188 151.152344 L 129.152344 149.390625 C 130.914062 146.726562 132.546875 146.167969 138.433594 146.210938 C 141.183594 146.253906 144.148438 146.46875 145.050781 146.683594 C 147.070312 147.242188 149.089844 149.261719 149.433594 151.066406 C 149.5625 151.84375 149.691406 158.117188 149.734375 164.992188 C 149.777344 175.046875 149.648438 177.753906 149.132812 178.960938 C 147.5 182.828125 144.578125 183.601562 135.039062 182.828125 Z M 135.039062 182.828125 " fill-opacity="1" fill-rule="nonzero"/><path fill="#cd8d2b" d="M 201.390625 182.785156 C 198.253906 182.570312 197.695312 182.398438 196.578125 181.324219 C 194.644531 179.476562 194.300781 176.980469 194.472656 165.9375 C 194.601562 155.28125 194.773438 154.550781 197.394531 152.789062 C 198.855469 151.800781 199.15625 151.800781 205.347656 151.929688 C 212.78125 152.058594 213.683594 152.402344 215.058594 155.410156 C 215.746094 157 215.875 158.332031 215.875 167.097656 C 215.875 172.554688 215.703125 177.667969 215.445312 178.445312 C 214.886719 180.421875 213.039062 182.3125 211.40625 182.527344 C 209 182.914062 205 183 201.390625 182.785156 Z M 201.390625 182.785156 " fill-opacity="1" fill-rule="nonzero"/><path fill="#cd8d2b" d="M 200.273438 142.816406 C 199.585938 142.601562 198.210938 141.742188 197.179688 140.925781 C 195.632812 139.636719 195.203125 138.992188 194.773438 137.101562 C 194.042969 133.707031 194.429688 124.121094 195.417969 122.273438 C 196.964844 119.265625 200.273438 118.40625 207.539062 119.09375 C 215.230469 119.867188 216.046875 120.898438 215.789062 129.667969 C 215.660156 134.78125 215.53125 135.511719 214.5 137.488281 C 213.425781 139.550781 211.320312 141.613281 209.128906 142.773438 C 208.054688 143.332031 202.078125 143.332031 200.273438 142.816406 Z M 200.273438 142.816406 " fill-opacity="1" fill-rule="nonzero"/><path fill="#cd8d2b" d="M 197.824219 108.953125 C 195.117188 107.578125 194.601562 106.03125 194.601562 99.199219 C 194.601562 92.019531 194.988281 90.773438 197.566406 89.441406 C 198.941406 88.710938 200.316406 88.453125 203.796875 88.324219 C 209.6875 88.066406 212.394531 88.667969 214.113281 90.601562 C 215.660156 92.40625 216.003906 94.296875 215.789062 100.574219 C 215.660156 104.828125 215.53125 105.472656 214.542969 106.976562 C 213.039062 109.253906 211.320312 109.726562 204.65625 109.726562 C 200.445312 109.726562 199.027344 109.554688 197.824219 108.953125 Z M 197.824219 108.953125 " fill-opacity="1" fill-rule="nonzero"/></svg>