<?xml version="1.0" standalone="no"?>
<!DOCTYPE svg PUBLIC "-//W3C//DTD SVG 1.0//EN" "http://www.w3.org/TR/2001/REC-SVG-20010904/DTD/svg10.dtd">
<svg version="1.0" xmlns="http://www.w3.org/2000/svg" width="500" height="500" viewBox="0 0 500 500" preserveAspectRatio="xMidYMid meet">
 <g fill="#e8e5dd">
  <path d="M119.45 314.85 c-7.80 -2.65 -12.60 -9.65 -12.65 -18.60 -0.10 -11.50 7.60 -19.70 18.55 -19.75 10.75 0 18.50 7.20 19.05 17.90 l0.25 4.10 -16.10 0 -16.05 0 0.30 1.40 c1 4.45 4.80 8.90 8.60 10 2.55 0.75 6.70 0.75 9.30 0 1.25 -0.40 3 -1.55 4.45 -3.05 2.40 -2.40 2.45 -2.40 5.40 -2.25 l2.95 0.15 -1.90 3 c-4.50 7.10 -13.65 10 -22.15 7.10z m18.80 -22.95 c-0.20 -0.65 -0.45 -1.60 -0.60 -2.15 -0.65 -2.30 -3.40 -5.30 -6.05 -6.60 -7.65 -3.75 -16.20 0.20 -18.80 8.75 l-0.35 1.10 13.05 0 13.05 0 -0.30 -1.10z"/>
  <path d="M199.70 315.45 c-5.40 -1.25 -10.75 -6.35 -12.70 -12.15 -1.45 -4.35 -1.25 -11.10 0.45 -15.40 2.90 -7.45 10.20 -11.90 18.50 -11.30 4.15 0.30 7.35 1.70 10 4.35 l2.05 2.05 0 -3 0 -3 2.75 0 2.75 0 0 19.25 0 19.25 -2.75 0 -2.75 0 0 -3.10 -0.05 -3.15 -1.05 1.40 c-3.05 4.15 -10.65 6.25 -17.20 4.80z m9.85 -5.55 c7.75 -2.30 11.15 -13.65 6.60 -22 -2.20 -4.10 -7.55 -6.75 -12.25 -6.15 -7.65 0.95 -12.05 6.30 -12.10 14.55 0 3.40 0.20 4.45 1.40 6.85 1.50 3.10 4.20 5.70 6.85 6.65 2.20 0.80 7.05 0.85 9.50 0.10z"/>
  <path d="M269.40 315.25 c-5.20 -1.40 -9.90 -5.50 -12.30 -10.65 -1.20 -2.60 -1.35 -3.40 -1.35 -8.60 0.05 -5.20 0.15 -6 1.40 -8.60 3.20 -6.55 8.45 -10.20 15.50 -10.75 4.85 -0.35 8.65 0.50 12.20 2.80 5.10 3.30 7.90 8.35 8.50 15.35 l0.30 3.70 -16.10 0 -16.15 0 0.35 1.65 c0.95 4.15 4.40 8.30 8.15 9.55 5.35 1.85 12.15 0.30 14.60 -3.25 0.65 -0.95 1.25 -1.80 1.35 -1.90 0.20 -0.25 5.80 -0.05 6.05 0.20 0.40 0.40 -2.35 4.55 -4.25 6.35 -4.50 4.30 -11.75 5.95 -18.25 4.15z m17.85 -23.35 c-2.10 -7.10 -8.30 -11.20 -15 -9.95 -3.40 0.65 -4.50 1.20 -6.90 3.45 -1.45 1.45 -3.85 5.95 -3.85 7.35 0 0.15 5.85 0.25 13.05 0.25 l13 0 -0.30 -1.10z"/>
  <path d="M311.50 315.30 c-4.80 -1.40 -8.05 -3.95 -10.70 -8.45 -2.80 -4.70 -3.50 -11.55 -1.80 -17.45 0.85 -3.05 4.50 -8 7.15 -9.75 3.35 -2.25 5.85 -2.90 11.10 -2.90 5.10 0 6.85 0.65 10.45 3.80 1.20 1.05 2.30 1.95 2.40 1.95 0.05 0 0.10 -4.20 0 -9.35 -0.10 -5.20 -0.05 -9.85 0.10 -10.40 0.20 -0.85 0.65 -1 2.90 -1 l2.65 0.05 0.15 26.85 0.10 26.90 -2.85 -0.15 -2.90 -0.15 -0.25 -2.65 -0.25 -2.65 -1.70 1.75 c-0.90 0.95 -2.80 2.20 -4.20 2.80 -3.15 1.35 -9.15 1.75 -12.35 0.80z m11.90 -6.10 c9.45 -4.70 9.45 -21.15 0 -26.05 -6.40 -3.25 -14.50 -0.75 -17.80 5.50 -1.20 2.35 -1.35 3.10 -1.35 7.60 0 5.60 0.75 7.75 3.95 10.95 3.50 3.45 10.45 4.40 15.20 2z"/>
  <path d="M430.15 315.25 c-8.95 -2.40 -14.20 -10.55 -13.50 -20.80 0.75 -11.45 9.20 -18.65 20.70 -17.80 6.90 0.50 11.95 4 15 10.25 1.80 3.70 1.85 4.05 1.85 9.10 0 4.25 -0.20 5.80 -1.15 8.10 -3.55 9.05 -13.20 13.75 -22.90 11.15z m9.90 -5.30 c2.65 -0.80 5 -2.90 6.70 -6 1.40 -2.50 1.50 -3.05 1.50 -7.95 0 -4.80 -0.10 -5.45 -1.35 -7.50 -2.70 -4.60 -6.10 -6.65 -11.15 -6.65 -1.65 0 -3.90 0.25 -4.95 0.65 -2.95 0.95 -6.10 4.10 -7.30 7.30 -1.25 3.40 -1.35 9.05 -0.15 12.45 1 2.95 4.60 6.80 7.15 7.60 2.35 0.75 7.20 0.80 9.55 0.10z"/>
  <path d="M48.25 314.90 c-0.15 -0.35 -0.20 -11.80 -0.15 -25.40 l0.15 -24.75 18.50 0 18.50 0 0 2.70 0 2.65 -15.65 0 -15.60 -0.05 0.10 8.50 0.15 8.55 13.75 0.05 13.75 0.10 0.15 2.65 0.15 2.60 -14 0 -14.05 0 0 8.50 0 8.50 15.65 0.10 15.60 0.15 0 2.75 0 2.75 -18.40 0.15 c-14.45 0.10 -18.45 0 -18.60 -0.50z"/>
  <path d="M93.50 288.80 l0 -26.70 2.55 -0.20 c1.40 -0.05 2.65 -0.05 2.75 0.05 0.10 0.10 0.20 12.20 0.20 26.90 l0 26.65 -2.75 0 -2.75 0 0 -26.70z"/>
  <path d="M161.25 314 c-0.45 -0.80 -1.40 -3.25 -2.20 -5.35 -1.50 -4 -6.60 -17.10 -10.10 -25.85 -1.05 -2.70 -1.95 -5.10 -1.95 -5.35 0 -0.25 1.30 -0.45 2.95 -0.45 l2.95 0 1 2.65 c1.50 3.75 8.80 23.15 9.90 26.25 0.50 1.40 1.05 2.60 1.25 2.60 0.20 0 0.55 -0.60 0.85 -1.35 2.10 -5.70 7.55 -20.35 9.20 -24.75 l2.05 -5.40 2.90 0 c1.80 0 2.95 0.20 2.95 0.55 0 0.30 -1.35 3.95 -2.95 8.10 -4.65 11.80 -10.75 27.60 -11.20 29 -0.25 0.70 -0.90 0.85 -3.55 0.85 -3.15 0 -3.30 -0.05 -4.05 -1.50z"/>
  <path d="M237.80 315.10 c-0.10 -0.20 -0.25 -7.70 -0.25 -16.60 l0 -16.25 -3.80 -0.15 -3.80 -0.15 0.15 -2.35 0.15 -2.35 3.75 -0.25 3.75 -0.25 -0.15 -6.60 c-0.10 -3.65 0 -6.65 0.25 -6.70 0.20 0 1.60 -0.10 3 -0.15 l2.60 -0.10 0.15 6.80 0.15 6.75 4.25 0.25 4.25 0.25 0.15 2.35 0.15 2.35 -4.40 0.15 -4.40 0.15 -0.15 16.65 -0.10 16.60 -2.75 0 c-1.45 0 -2.80 -0.20 -2.95 -0.40z"/>
  <path d="M347 290.30 c0 -22.55 0.10 -25.25 0.80 -25.50 0.45 -0.15 6.45 -0.25 13.35 -0.15 14.20 0.20 16 0.55 20 3.65 1.65 1.30 2.85 2.85 4 5.15 1.40 2.90 1.60 3.75 1.60 7.55 0 3.80 -0.20 4.65 -1.65 7.60 -1.20 2.45 -2.25 3.80 -4 5.05 -4.55 3.30 -5.70 3.50 -17.70 3.75 l-10.90 0.20 0 8.95 0 8.95 -2.75 0 -2.75 0 0 -25.20z m25.35 1.25 c5.25 -0.75 8.65 -4.70 8.65 -10.10 0 -3.85 -0.85 -6.40 -2.70 -8.10 -2.90 -2.75 -4.10 -3 -15.40 -3.20 l-10.40 -0.15 0 11 0 11 8.65 -0.05 c4.70 0 9.75 -0.20 11.20 -0.40z"/>
  <path d="M393.50 296.25 l0 -19.30 2.90 0.15 2.85 0.15 -0.05 3.90 c-0.05 2.10 0.05 3.85 0.25 3.85 0.15 0 0.80 -0.90 1.45 -2 1.80 -3.20 7.50 -6.50 11.15 -6.50 1.45 0 1.45 0.05 1.45 2.90 l0 2.90 -2 0.05 c-2.50 0.10 -6.75 2.35 -8.25 4.40 -3.45 4.60 -4.35 9.10 -4.20 20.75 l0.15 7.75 -2.85 0.15 -2.85 0.15 0 -19.30z"/>
  <path d="M226.15 244.80 c-3.45 -0.70 -4.15 -1.15 -5.75 -3.75 -1.05 -1.65 -1.15 -2.40 -1.15 -8.55 0.05 -5.95 0.15 -7 1.10 -8.80 1.75 -3.30 4.25 -4.20 11.80 -4.20 7.35 0 9.95 0.95 11.50 4.10 1.15 2.40 1.30 13.85 0.20 16.50 -1.95 4.60 -8.85 6.45 -17.70 4.70z"/>
  <path d="M301.20 244.15 c-1.75 -0.35 -3.70 -2.85 -4.45 -5.70 -0.90 -3.25 -0.95 -9.90 -0.20 -13.55 1.30 -6.10 3.15 -7.15 12.95 -7.15 6.15 0 6.90 0.10 8.55 1.15 1.95 1.20 2.60 2.40 3.40 6.50 1.05 5.20 0.40 13.30 -1.35 16.20 -1.45 2.45 -3.25 2.90 -10.95 2.85 -3.80 -0.05 -7.40 -0.20 -7.95 -0.30z"/>
  <path d="M225 208.95 c-2.05 -0.60 -3.75 -2.10 -4.90 -4.20 -0.75 -1.30 -0.85 -3.30 -0.85 -13.75 0 -11.25 0.10 -12.40 1 -14.20 1.85 -3.65 2.85 -4.05 11.15 -4.20 8.80 -0.15 10.15 0.30 12 3.95 1 2 1.15 3.30 1.45 11 0.50 14.35 -0.15 17.80 -4 20.65 -1.25 0.90 -2.20 1.05 -7.75 1.15 -3.50 0.05 -7.15 -0.15 -8.10 -0.40z"/>
  <path d="M301 206.15 c-1.85 -0.75 -2.45 -1.35 -3.50 -3.40 -1.25 -2.45 -1.25 -2.65 -1.40 -16.75 -0.10 -13.80 -0.05 -14.35 1 -17 1.65 -3.95 3.35 -4.70 11 -4.90 10.30 -0.30 12.40 1.15 13.35 9.15 0.70 5.85 0.70 22.20 0 26.05 -0.70 3.70 -2.05 5.95 -4.10 6.70 -0.85 0.35 -4.40 0.70 -7.85 0.80 -5.10 0.15 -6.65 0.05 -8.50 -0.65z"/>
  <path d="M302.50 152.70 c-1.50 -0.40 -3.25 -1.20 -3.85 -1.80 -2.20 -2.05 -2.40 -4.05 -2.40 -22.65 0 -16.85 0.05 -17.60 1.10 -19.85 1.70 -3.70 3 -4.15 11.65 -4.15 12.90 0 13.20 0.60 12.90 26.25 -0.15 15.55 -0.20 16.35 -1.25 18.30 -0.60 1.10 -1.40 2.30 -1.85 2.65 -2.30 1.95 -11.20 2.60 -16.30 1.25z"/>
 </g>
 <g fill="#cd8d2b">
  <path d="M187 348.95 c-2.55 -0.50 -4.20 -1.85 -3.70 -3.10 0.25 -0.75 0.50 -0.75 2.35 0.20 3.70 1.90 7.35 1 7.35 -1.80 0 -1.40 -1.10 -2.35 -4.25 -3.70 -1.35 -0.60 -3.10 -1.70 -3.85 -2.40 -2.60 -2.50 -1.35 -6.45 2.40 -7.65 2.65 -0.90 7.20 0.40 7.20 2.05 0 1 -1.70 1.35 -2.20 0.50 -0.15 -0.20 -0.95 -0.55 -1.80 -0.75 -2.15 -0.40 -4.50 0.85 -4.50 2.40 0 1.50 1 2.30 5.05 4.20 3.35 1.60 4.45 2.90 4.45 5.35 0 1.45 -2.15 4.10 -3.65 4.50 -2.05 0.60 -2.60 0.65 -4.85 0.20z"/>
  <path d="M204.25 349.10 c-3.30 -0.40 -6.25 -4.95 -6.25 -9.70 0 -8.30 8.05 -12.25 13.50 -6.65 1.60 1.65 1.75 2.05 1.90 5.60 0.25 4.50 -0.40 6.95 -2.25 8.75 -1.50 1.45 -4.45 2.30 -6.90 2z m4.90 -3.50 c2.60 -2.40 3 -8.05 0.85 -11.10 -2.40 -3.40 -7.15 -2.80 -8.70 1.05 -1.80 4.45 -0.15 10.20 3.20 11.25 2.05 0.70 2.80 0.50 4.65 -1.20z"/>
  <path d="M235.75 349.10 c-1.95 -0.25 -4.15 -2.30 -4.75 -4.55 -0.25 -1 -0.50 -4.40 -0.50 -7.55 0 -5.80 0.40 -7.20 1.80 -6.65 0.55 0.20 0.70 1.70 0.70 6.85 0 5.55 0.15 6.80 0.95 8.10 1.15 1.85 3.05 2.50 4.95 1.60 2.15 -1.05 2.60 -2.60 2.60 -9.05 0 -6.10 0.45 -8.05 1.75 -7.55 0.60 0.25 0.75 1.50 0.75 6.75 0 6.55 -0.40 8.35 -2.20 10.65 -0.80 1 -3.65 1.65 -6.05 1.40z"/>
  <path d="M276.60 349.10 c-2.15 -0.20 -4.80 -2.95 -5.60 -5.90 -0.80 -2.80 -0.40 -7.65 0.75 -9.40 1.55 -2.40 3.70 -3.50 6.60 -3.50 2.95 0 4.65 0.95 6.55 3.70 0.90 1.35 1.10 2.35 1.10 5.35 0 3.85 -0.90 6.50 -2.85 8.25 -1.10 1 -4.25 1.70 -6.55 1.50z m5.10 -3.55 c1.60 -1.65 2.40 -4.75 1.95 -7.80 -0.65 -4.30 -4 -6.60 -7.35 -5 -2.15 1.05 -3.30 3.35 -3.30 6.70 0 3.40 1.05 5.80 3.10 7.05 2 1.25 3.60 0.95 5.60 -0.95z"/>
  <path d="M311.50 348.90 c-2.75 -0.50 -4.45 -2 -3.55 -3.10 0.60 -0.70 0.80 -0.70 2.10 0.25 2.90 2.05 7.45 1 7.45 -1.75 0 -1.60 -0.55 -2.15 -3.25 -3.30 -1.40 -0.60 -3.20 -1.60 -4.10 -2.30 -4 -3.05 -1.65 -8.50 3.65 -8.40 2.85 0.05 5.20 1.10 5.20 2.25 0 1.15 -0.60 1.20 -3.30 0.15 -1.80 -0.70 -2.30 -0.70 -3.55 -0.10 -1.55 0.75 -2.10 2.50 -1.10 3.70 0.35 0.45 2.25 1.55 4.25 2.50 3.90 1.85 5.05 3.40 4.45 6.10 -0.65 3.10 -4.05 4.75 -8.25 4z"/>
  <path d="M218 339.75 c0 -9.20 0 -9.30 1.05 -9.15 1 0.15 1.05 0.40 1 8.25 l-0.10 8.10 4.15 0.15 c3.30 0.10 4.15 0.30 4.15 0.90 0 0.60 -0.95 0.80 -5.10 0.90 l-5.15 0.15 0 -9.30z"/>
  <path d="M252.50 340.80 l0 -8.25 -2.60 -0.15 c-1.95 -0.10 -2.65 -0.35 -2.65 -0.90 0 -0.60 1.15 -0.75 6.65 -0.90 6.35 -0.10 6.60 -0.10 6.60 0.90 0 0.85 -0.30 1 -2.45 1 -1.55 0 -2.55 0.25 -2.70 0.65 -0.15 0.35 -0.30 3.90 -0.30 7.85 -0.05 3.95 -0.20 7.35 -0.35 7.60 -0.15 0.20 -0.70 0.40 -1.25 0.40 -0.90 0 -0.95 -0.40 -0.95 -8.20z"/>
  <path d="M264.10 339.90 c0.15 -9.05 0.15 -9.15 1.30 -9.30 l1.10 -0.15 0 9.25 0 9.30 -1.25 0 -1.25 0 0.10 -9.10z"/>
  <path d="M290.40 340.75 c-0.05 -4.55 -0.10 -8.65 -0.10 -9.10 -0.05 -0.60 0.40 -0.95 1.20 -1.05 1.15 -0.15 1.65 0.55 5.25 6.90 2.20 3.85 4.15 7 4.30 7 0.15 0 0.25 -3.10 0.25 -6.85 -0.05 -6.80 -0.05 -6.90 1.10 -7.05 l1.10 -0.15 0 9.25 0 9.30 -1.25 0 c-1.50 0 -2.05 -0.85 -7.65 -11.25 l-1.85 -3.50 -0.15 7.40 c-0.10 6.95 -0.20 7.35 -1.10 7.35 -0.95 0 -1 -0.40 -1.10 -8.25z"/>
  <path d="M60.20 340.55 c-0.10 -0.10 -0.20 -0.75 -0.20 -1.40 l0 -1.15 57.70 0 c34.15 0 57.85 0.20 58 0.45 0.20 0.25 0.15 0.80 0 1.25 -0.25 0.70 -5.90 0.80 -57.80 0.90 -31.60 0.10 -57.60 0.05 -57.70 -0.05z"/>
  <path d="M327.20 340.55 c-0.10 -0.10 -0.20 -0.75 -0.20 -1.40 l0 -1.15 57.65 0.10 57.60 0.15 0 1.15 0 1.10 -57.40 0.15 c-31.60 0.05 -57.55 0 -57.65 -0.10z"/>
  <path d="M188.95 244.55 c-3.80 -0.35 -4.80 -0.75 -6.55 -2.80 -1.65 -1.90 -2 -5.80 -1.80 -20.20 l0.15 -13.85 1.35 -2.05 c2.05 -3.10 3.95 -3.75 10.80 -3.70 3.20 0.05 6.65 0.30 7.70 0.55 2.35 0.65 4.70 3 5.10 5.10 0.15 0.90 0.30 8.20 0.35 16.20 0.05 11.70 -0.10 14.85 -0.70 16.25 -1.90 4.50 -5.30 5.40 -16.40 4.50z"/>
  <path d="M266.15 244.50 c-3.65 -0.25 -4.30 -0.45 -5.60 -1.70 -2.25 -2.15 -2.65 -5.05 -2.45 -17.90 0.15 -12.40 0.35 -13.25 3.40 -15.30 1.70 -1.15 2.05 -1.15 9.25 -1 8.65 0.15 9.70 0.55 11.30 4.05 0.80 1.85 0.95 3.40 0.95 13.60 0 6.35 -0.20 12.30 -0.50 13.20 -0.65 2.30 -2.80 4.50 -4.70 4.75 -2.80 0.45 -7.45 0.55 -11.65 0.30z"/>
  <path d="M264.85 198 c-0.80 -0.25 -2.40 -1.25 -3.60 -2.20 -1.80 -1.50 -2.30 -2.25 -2.80 -4.45 -0.85 -3.95 -0.40 -15.10 0.75 -17.25 1.80 -3.50 5.65 -4.50 14.10 -3.70 8.95 0.90 9.90 2.10 9.60 12.30 -0.15 5.95 -0.30 6.80 -1.50 9.10 -1.25 2.40 -3.70 4.80 -6.25 6.15 -1.25 0.65 -8.20 0.65 -10.30 0.05z"/>
  <path d="M262 158.60 c-3.15 -1.60 -3.75 -3.40 -3.75 -11.35 0 -8.35 0.45 -9.80 3.45 -11.35 1.60 -0.85 3.20 -1.15 7.25 -1.30 6.85 -0.30 10 0.40 12 2.65 1.80 2.10 2.20 4.30 1.95 11.60 -0.15 4.95 -0.30 5.70 -1.45 7.45 -1.75 2.65 -3.75 3.20 -11.50 3.20 -4.90 0 -6.55 -0.20 -7.95 -0.90z"/>
 </g>
</svg>